<svg xmlns="http://www.w3.org/2000/svg" xmlns:xlink="http://www.w3.org/1999/xlink" width="512" zoomAndPan="magnify" viewBox="0 0 384 383.999986" height="512" preserveAspectRatio="xMidYMid meet" version="1.0"><defs><clipPath id="d87928c109"><path d="M 5.882812 94.097656 L 132.457031 94.097656 L 132.457031 220.675781 L 5.882812 220.675781 Z M 5.882812 94.097656 " clip-rule="nonzero"/></clipPath><clipPath id="cf462fe22d"><path d="M 152.382812 110.464844 L 278.960938 110.464844 L 278.960938 237.039062 L 152.382812 237.039062 Z M 152.382812 110.464844 " clip-rule="nonzero"/></clipPath><clipPath id="d3b35605f7"><path d="M 77 0.320312 L 171 0.320312 L 171 97 L 77 97 Z M 77 0.320312 " clip-rule="nonzero"/></clipPath><clipPath id="b37e0004d8"><path d="M 115 37 L 218.554688 37 L 218.554688 110.613281 L 115 110.613281 Z M 115 37 " clip-rule="nonzero"/></clipPath><clipPath id="9e453e59c8"><path d="M 145.941406 214.878906 L 291.4375 214.878906 L 291.4375 304.417969 L 145.941406 304.417969 Z M 145.941406 214.878906 " clip-rule="nonzero"/></clipPath><clipPath id="ab39f3c1f1"><path d="M 218.644531 214.878906 L 291.347656 304.417969 L 145.941406 304.417969 Z M 218.644531 214.878906 " clip-rule="nonzero"/></clipPath><clipPath id="406c50932f"><path d="M 0.941406 0.878906 L 146.4375 0.878906 L 146.4375 90.417969 L 0.941406 90.417969 Z M 0.941406 0.878906 " clip-rule="nonzero"/></clipPath><clipPath id="b2d550aba6"><path d="M 73.644531 0.878906 L 146.347656 90.417969 L 0.941406 90.417969 Z M 73.644531 0.878906 " clip-rule="nonzero"/></clipPath><clipPath id="986ae254de"><rect x="0" width="147" y="0" height="91"/></clipPath><clipPath id="6699c88a19"><path d="M 39.992188 214.878906 L 142.46875 214.878906 L 142.46875 304.417969 L 39.992188 304.417969 Z M 39.992188 214.878906 " clip-rule="nonzero"/></clipPath><clipPath id="e6eec285ad"><path d="M 91.152344 304.417969 L 142.316406 214.878906 L 39.992188 214.878906 Z M 91.152344 304.417969 " clip-rule="nonzero"/></clipPath><clipPath id="f4b5902be8"><path d="M 0.992188 0.878906 L 103.46875 0.878906 L 103.46875 90.417969 L 0.992188 90.417969 Z M 0.992188 0.878906 " clip-rule="nonzero"/></clipPath><clipPath id="0a54161925"><path d="M 52.152344 90.417969 L 103.316406 0.878906 L 0.992188 0.878906 Z M 52.152344 90.417969 " clip-rule="nonzero"/></clipPath><clipPath id="f8980b4410"><rect x="0" width="104" y="0" height="91"/></clipPath><clipPath id="836d3e6c1d"><path d="M 0.398438 214.878906 L 102.878906 214.878906 L 102.878906 304.417969 L 0.398438 304.417969 Z M 0.398438 214.878906 " clip-rule="nonzero"/></clipPath><clipPath id="4aa4bd2133"><path d="M 51.5625 304.417969 L 102.726562 214.878906 L 0.398438 214.878906 Z M 51.5625 304.417969 " clip-rule="nonzero"/></clipPath><clipPath id="7ccffd06eb"><path d="M 0.398438 0.878906 L 102.878906 0.878906 L 102.878906 90.417969 L 0.398438 90.417969 Z M 0.398438 0.878906 " clip-rule="nonzero"/></clipPath><clipPath id="985811e881"><path d="M 51.5625 90.417969 L 102.726562 0.878906 L 0.398438 0.878906 Z M 51.5625 90.417969 " clip-rule="nonzero"/></clipPath><clipPath id="f177e8d9c7"><rect x="0" width="103" y="0" height="91"/></clipPath><clipPath id="7d145c835b"><path d="M 51.5625 214.878906 L 91.152344 214.878906 L 91.152344 304.417969 L 51.5625 304.417969 Z M 51.5625 214.878906 " clip-rule="nonzero"/></clipPath><clipPath id="92b2a7c6c3"><path d="M 0.5625 0.878906 L 40.152344 0.878906 L 40.152344 90.417969 L 0.5625 90.417969 Z M 0.5625 0.878906 " clip-rule="nonzero"/></clipPath><clipPath id="bc77a56504"><rect x="0" width="41" y="0" height="91"/></clipPath><clipPath id="c799a1831f"><rect x="0" width="292" y="0" height="305"/></clipPath></defs><g transform="matrix(1, 0, 0, 1, 38, 22)"><g clip-path="url(#c799a1831f)"><g clip-path="url(#d87928c109)"><path fill="#fbb144" d="M 132.480469 157.398438 C 132.480469 159.46875 132.378906 161.539062 132.171875 163.601562 C 131.96875 165.664062 131.667969 167.714844 131.261719 169.746094 C 130.859375 171.78125 130.355469 173.789062 129.753906 175.773438 C 129.152344 177.753906 128.453125 179.707031 127.660156 181.621094 C 126.867188 183.535156 125.980469 185.40625 125.003906 187.234375 C 124.027344 189.0625 122.960938 190.839844 121.8125 192.5625 C 120.660156 194.289062 119.425781 195.949219 118.109375 197.554688 C 116.796875 199.15625 115.40625 200.691406 113.9375 202.15625 C 112.472656 203.621094 110.9375 205.011719 109.335938 206.328125 C 107.734375 207.644531 106.070312 208.875 104.347656 210.027344 C 102.625 211.179688 100.847656 212.246094 99.019531 213.222656 C 97.191406 214.199219 95.320312 215.085938 93.402344 215.878906 C 91.488281 216.671875 89.539062 217.367188 87.554688 217.96875 C 85.570312 218.570312 83.5625 219.074219 81.527344 219.480469 C 79.496094 219.882812 77.449219 220.1875 75.382812 220.390625 C 73.320312 220.59375 71.253906 220.695312 69.179688 220.695312 C 67.105469 220.695312 65.039062 220.59375 62.976562 220.390625 C 60.914062 220.1875 58.863281 219.882812 56.832031 219.480469 C 54.796875 219.074219 52.789062 218.570312 50.804688 217.96875 C 48.820312 217.367188 46.871094 216.671875 44.957031 215.878906 C 43.042969 215.085938 41.167969 214.199219 39.339844 213.222656 C 37.511719 212.246094 35.738281 211.179688 34.011719 210.027344 C 32.289062 208.875 30.625 207.644531 29.023438 206.328125 C 27.421875 205.011719 25.886719 203.621094 24.421875 202.15625 C 22.957031 200.691406 21.566406 199.15625 20.25 197.554688 C 18.933594 195.949219 17.699219 194.289062 16.550781 192.5625 C 15.398438 190.839844 14.332031 189.0625 13.355469 187.234375 C 12.378906 185.40625 11.492188 183.535156 10.699219 181.621094 C 9.90625 179.707031 9.207031 177.753906 8.605469 175.773438 C 8.003906 173.789062 7.5 171.78125 7.097656 169.746094 C 6.691406 167.714844 6.390625 165.664062 6.1875 163.601562 C 5.984375 161.539062 5.882812 159.46875 5.882812 157.398438 C 5.882812 155.324219 5.984375 153.257812 6.1875 151.191406 C 6.390625 149.128906 6.691406 147.082031 7.097656 145.046875 C 7.5 143.015625 8.003906 141.007812 8.605469 139.023438 C 9.207031 137.039062 9.90625 135.089844 10.699219 133.175781 C 11.492188 131.257812 12.378906 129.386719 13.355469 127.558594 C 14.332031 125.730469 15.398438 123.953125 16.550781 122.230469 C 17.699219 120.507812 18.933594 118.84375 20.25 117.242188 C 21.566406 115.636719 22.957031 114.105469 24.421875 112.636719 C 25.886719 111.171875 27.421875 109.78125 29.023438 108.464844 C 30.625 107.152344 32.289062 105.917969 34.011719 104.765625 C 35.738281 103.613281 37.511719 102.550781 39.339844 101.574219 C 41.167969 100.59375 43.042969 99.710938 44.957031 98.917969 C 46.871094 98.125 48.820312 97.425781 50.804688 96.824219 C 52.789062 96.222656 54.796875 95.71875 56.832031 95.316406 C 58.863281 94.910156 60.914062 94.605469 62.976562 94.402344 C 65.039062 94.199219 67.105469 94.097656 69.179688 94.097656 C 71.253906 94.097656 73.320312 94.199219 75.382812 94.402344 C 77.449219 94.605469 79.496094 94.910156 81.527344 95.316406 C 83.5625 95.71875 85.570312 96.222656 87.554688 96.824219 C 89.539062 97.425781 91.488281 98.125 93.402344 98.917969 C 95.320312 99.710938 97.191406 100.59375 99.019531 101.574219 C 100.847656 102.550781 102.625 103.613281 104.347656 104.765625 C 106.070312 105.917969 107.734375 107.152344 109.335938 108.464844 C 110.9375 109.78125 112.472656 111.171875 113.9375 112.636719 C 115.40625 114.105469 116.796875 115.636719 118.109375 117.242188 C 119.425781 118.84375 120.660156 120.507812 121.8125 122.230469 C 122.960938 123.953125 124.027344 125.730469 125.003906 127.558594 C 125.980469 129.386719 126.867188 131.257812 127.660156 133.175781 C 128.453125 135.089844 129.152344 137.039062 129.753906 139.023438 C 130.355469 141.007812 130.859375 143.015625 131.261719 145.046875 C 131.667969 147.082031 131.96875 149.128906 132.175781 151.191406 C 132.378906 153.257812 132.480469 155.324219 132.480469 157.398438 Z M 132.480469 157.398438 " fill-opacity="1" fill-rule="nonzero"/></g><g clip-path="url(#cf462fe22d)"><path fill="#f96653" d="M 278.980469 173.761719 C 278.980469 175.835938 278.878906 177.902344 278.675781 179.964844 C 278.472656 182.03125 278.167969 184.078125 277.765625 186.109375 C 277.359375 188.144531 276.855469 190.152344 276.253906 192.136719 C 275.652344 194.121094 274.957031 196.070312 274.164062 197.984375 C 273.371094 199.902344 272.484375 201.773438 271.507812 203.601562 C 270.53125 205.429688 269.464844 207.203125 268.3125 208.929688 C 267.160156 210.652344 265.929688 212.316406 264.613281 213.917969 C 263.296875 215.519531 261.90625 217.054688 260.441406 218.519531 C 258.976562 219.988281 257.441406 221.378906 255.839844 222.691406 C 254.234375 224.007812 252.574219 225.242188 250.847656 226.394531 C 249.125 227.542969 247.347656 228.609375 245.519531 229.585938 C 243.691406 230.5625 241.820312 231.449219 239.90625 232.242188 C 237.992188 233.035156 236.039062 233.734375 234.058594 234.335938 C 232.074219 234.9375 230.066406 235.441406 228.03125 235.84375 C 226 236.25 223.949219 236.550781 221.886719 236.753906 C 219.824219 236.960938 217.753906 237.0625 215.683594 237.0625 C 213.609375 237.0625 211.542969 236.960938 209.476562 236.753906 C 207.414062 236.550781 205.367188 236.25 203.332031 235.84375 C 201.300781 235.441406 199.292969 234.9375 197.308594 234.335938 C 195.324219 233.734375 193.375 233.035156 191.460938 232.242188 C 189.542969 231.449219 187.671875 230.5625 185.84375 229.585938 C 184.015625 228.609375 182.238281 227.542969 180.515625 226.394531 C 178.792969 225.242188 177.128906 224.007812 175.527344 222.691406 C 173.921875 221.378906 172.390625 219.988281 170.921875 218.519531 C 169.457031 217.054688 168.066406 215.519531 166.75 213.917969 C 165.4375 212.316406 164.203125 210.652344 163.050781 208.929688 C 161.898438 207.203125 160.835938 205.429688 159.859375 203.601562 C 158.878906 201.773438 157.996094 199.902344 157.203125 197.984375 C 156.410156 196.070312 155.710938 194.121094 155.109375 192.136719 C 154.507812 190.152344 154.003906 188.144531 153.601562 186.109375 C 153.195312 184.078125 152.890625 182.03125 152.6875 179.964844 C 152.484375 177.902344 152.382812 175.835938 152.382812 173.761719 C 152.382812 171.6875 152.484375 169.621094 152.6875 167.558594 C 152.890625 165.496094 153.195312 163.445312 153.601562 161.414062 C 154.003906 159.378906 154.507812 157.371094 155.109375 155.386719 C 155.710938 153.402344 156.410156 151.453125 157.203125 149.539062 C 157.996094 147.625 158.878906 145.75 159.859375 143.921875 C 160.835938 142.09375 161.898438 140.320312 163.050781 138.59375 C 164.203125 136.871094 165.4375 135.207031 166.75 133.605469 C 168.066406 132.003906 169.457031 130.46875 170.921875 129.003906 C 172.390625 127.535156 173.921875 126.148438 175.527344 124.832031 C 177.128906 123.515625 178.792969 122.28125 180.515625 121.132812 C 182.238281 119.980469 184.015625 118.914062 185.84375 117.9375 C 187.671875 116.960938 189.542969 116.074219 191.460938 115.28125 C 193.375 114.488281 195.324219 113.789062 197.308594 113.1875 C 199.292969 112.585938 201.300781 112.082031 203.332031 111.679688 C 205.367188 111.273438 207.414062 110.972656 209.476562 110.769531 C 211.542969 110.566406 213.609375 110.464844 215.683594 110.464844 C 217.753906 110.464844 219.824219 110.566406 221.886719 110.769531 C 223.949219 110.972656 226 111.273438 228.03125 111.679688 C 230.066406 112.082031 232.074219 112.585938 234.058594 113.1875 C 236.039062 113.789062 237.992188 114.488281 239.90625 115.28125 C 241.820312 116.074219 243.691406 116.960938 245.519531 117.9375 C 247.347656 118.914062 249.125 119.980469 250.847656 121.132812 C 252.574219 122.28125 254.234375 123.515625 255.839844 124.832031 C 257.441406 126.148438 258.976562 127.535156 260.441406 129.003906 C 261.90625 130.46875 263.296875 132.003906 264.613281 133.605469 C 265.929688 135.207031 267.160156 136.871094 268.3125 138.59375 C 269.464844 140.320312 270.53125 142.09375 271.507812 143.921875 C 272.484375 145.75 273.371094 147.625 274.164062 149.539062 C 274.957031 151.453125 275.652344 153.402344 276.253906 155.386719 C 276.855469 157.371094 277.359375 159.378906 277.765625 161.414062 C 278.167969 163.445312 278.472656 165.496094 278.675781 167.558594 C 278.878906 169.621094 278.980469 171.6875 278.980469 173.761719 Z M 278.980469 173.761719 " fill-opacity="1" fill-rule="nonzero"/></g><g clip-path="url(#d3b35605f7)"><path fill="#fbb144" d="M 86.011719 59.632812 L 78.058594 31.015625 C 76.660156 25.984375 79.605469 20.769531 84.640625 19.371094 L 151.511719 0.785156 C 156.546875 -0.613281 161.761719 2.332031 163.160156 7.363281 L 170.628906 34.242188 L 125.289062 34.242188 C 118.324219 34.242188 112.660156 39.90625 112.660156 46.871094 L 112.660156 62.042969 L 112.496094 62.089844 C 103.929688 64.472656 96.609375 70.066406 92.070312 77.714844 L 81.128906 96.136719 L 91.132812 65.675781 C 88.714844 64.546875 86.78125 62.40625 86.011719 59.632812 " fill-opacity="1" fill-rule="nonzero"/></g><g clip-path="url(#b37e0004d8)"><path fill="#f96653" d="M 125.289062 37.410156 L 194.699219 37.410156 C 199.921875 37.410156 204.15625 41.644531 204.15625 46.871094 L 204.15625 76.570312 C 204.15625 79.449219 202.871094 82.03125 200.839844 83.765625 L 218.636719 110.4375 L 203.160156 95.613281 C 196.738281 89.464844 188.191406 86.03125 179.296875 86.03125 L 125.289062 86.03125 C 120.066406 86.03125 115.828125 81.796875 115.828125 76.570312 L 115.828125 46.871094 C 115.828125 41.644531 120.066406 37.410156 125.289062 37.410156 " fill-opacity="1" fill-rule="nonzero"/></g><g clip-path="url(#9e453e59c8)"><g clip-path="url(#ab39f3c1f1)"><g transform="matrix(1, 0, 0, 1, 145, 214)"><g clip-path="url(#986ae254de)"><g clip-path="url(#406c50932f)"><g clip-path="url(#b2d550aba6)"><path fill="#f96653" d="M 0.941406 0.878906 L 146.4375 0.878906 L 146.4375 90.417969 L 0.941406 90.417969 Z M 0.941406 0.878906 " fill-opacity="1" fill-rule="nonzero"/></g></g></g></g></g></g><g clip-path="url(#6699c88a19)"><g clip-path="url(#e6eec285ad)"><g transform="matrix(1, 0, 0, 1, 39, 214)"><g clip-path="url(#f8980b4410)"><g clip-path="url(#f4b5902be8)"><g clip-path="url(#0a54161925)"><path fill="#fbb144" d="M 0.992188 0.878906 L 103.46875 0.878906 L 103.46875 90.417969 L 0.992188 90.417969 Z M 0.992188 0.878906 " fill-opacity="1" fill-rule="nonzero"/></g></g></g></g></g></g><g clip-path="url(#836d3e6c1d)"><g clip-path="url(#4aa4bd2133)"><g transform="matrix(1, 0, 0, 1, 0, 214)"><g clip-path="url(#f177e8d9c7)"><g clip-path="url(#7ccffd06eb)"><g clip-path="url(#985811e881)"><path fill="#fbb144" d="M 0.398438 0.878906 L 102.878906 0.878906 L 102.878906 90.417969 L 0.398438 90.417969 Z M 0.398438 0.878906 " fill-opacity="1" fill-rule="nonzero"/></g></g></g></g></g></g><g clip-path="url(#7d145c835b)"><g transform="matrix(1, 0, 0, 1, 51, 214)"><g clip-path="url(#bc77a56504)"><g clip-path="url(#92b2a7c6c3)"><path fill="#fbb144" d="M 0.5625 0.878906 L 40.152344 0.878906 L 40.152344 90.421875 L 0.5625 90.421875 Z M 0.5625 0.878906 " fill-opacity="1" fill-rule="nonzero"/></g></g></g></g></g></g></svg>